<svg width="233" height="232" viewBox="0 0 233 232" fill="none" xmlns="http://www.w3.org/2000/svg">
<circle cx="116.36" cy="115.999" r="115.724" fill="#7B61FF"/>
<path d="M102.4 148.959C99.5736 148.746 97.7069 148.052 96.8002 146.879C95.9469 145.706 95.5202 144.239 95.5202 142.479C95.5202 140.506 95.8669 138.132 96.5602 135.359C97.2536 132.586 98.1602 129.626 99.2802 126.479C100.4 123.332 101.627 120.212 102.96 117.119C102.374 117.172 101.44 117.252 100.16 117.359C98.9336 117.466 97.6536 117.599 96.3202 117.759C95.0402 117.866 94.0002 117.999 93.2002 118.159C93.3602 116.506 93.9736 115.226 95.0402 114.319C96.1602 113.359 97.5736 112.666 99.2802 112.239C101.04 111.812 102.934 111.572 104.96 111.519C106.347 107.679 107.76 103.946 109.2 100.319C110.694 96.6391 112.187 93.2791 113.68 90.2391C113.36 90.1858 112.987 90.1591 112.56 90.1591C112.134 90.1058 111.547 90.0791 110.8 90.0791C107.547 90.0791 105.014 90.4258 103.2 91.1191C101.44 91.8125 100.214 92.7991 99.5202 94.0791C98.8802 95.3591 98.5602 96.9325 98.5602 98.7991C98.5602 100.132 98.6936 101.359 98.9602 102.479C99.2269 103.546 99.6269 104.719 100.16 105.999C97.6536 105.572 95.8669 104.772 94.8002 103.599C93.7336 102.372 93.2002 100.852 93.2002 99.0391C93.2002 96.2658 94.2136 93.8125 96.2402 91.6791C98.3202 89.5458 101.094 87.8658 104.56 86.6391C108.08 85.4125 112.027 84.7991 116.4 84.7991C119.227 84.7991 122.054 84.9858 124.88 85.3591C127.707 85.7325 130.347 85.9191 132.8 85.9191C134.134 85.9191 135.414 85.8391 136.64 85.6791C137.867 85.4658 139.28 85.1458 140.88 84.7191C138.32 87.5458 136.214 89.4391 134.56 90.3991C132.96 91.3591 131.387 91.8391 129.84 91.8391C128.56 91.8391 126.907 91.6791 124.88 91.3591C122.854 90.9858 120.667 90.7191 118.32 90.5591C117.254 93.1191 116.107 96.2658 114.88 99.9991C113.654 103.679 112.4 107.546 111.12 111.599C113.894 111.812 116.4 112.052 118.64 112.319C120.88 112.586 123.36 112.772 126.08 112.879C125.44 113.732 124.774 114.426 124.08 114.959C123.44 115.439 122.56 115.786 121.44 115.999C120.374 116.212 118.88 116.372 116.96 116.479C115.094 116.586 112.64 116.666 109.6 116.719C109.174 118.319 108.72 119.946 108.24 121.599C107.76 123.252 107.334 124.666 106.96 125.839C106.64 127.012 106.427 127.732 106.32 127.999C104.827 133.119 103.787 137.306 103.2 140.559C102.667 143.759 102.4 146.559 102.4 148.959ZM130.776 142.799C129.496 142.799 128.59 142.479 128.056 141.839C127.523 141.146 127.256 140.452 127.256 139.759C127.256 139.172 127.523 138.559 128.056 137.919C128.59 137.226 129.256 136.666 130.056 136.239C130.856 135.759 131.603 135.519 132.296 135.519C132.883 135.519 133.47 135.706 134.056 136.079C134.643 136.399 134.936 137.039 134.936 137.999C134.936 138.426 134.776 139.039 134.456 139.839C134.136 140.586 133.656 141.279 133.016 141.919C132.43 142.506 131.683 142.799 130.776 142.799Z" fill="white"/>
</svg>
